<?xml version="1.0" ?>
<!-- Uploaded to: SVG Repo, www.svgrepo.com, Generator: SVG Repo Mixer Tools -->
<svg width="800px" height="800px" viewBox="0 0 64 64" xmlns="http://www.w3.org/2000/svg">
<g id="a"/>
<g id="b"/>
<g id="c"/>
<g id="d"/>
<g id="e"/>
<g id="f"/>
<g id="g"/>
<g id="h"/>
<g id="i"/>
<g id="j"/>
<g id="k"/>
<g id="l"/>
<g id="m"/>
<g id="n"/>
<g id="o"/>
<g id="p"/>
<g id="q"/>
<g id="r"/>
<g id="s"/>
<g id="t"/>
<g id="u"/>
<g id="v"/>
<g id="w"/>
<g id="x"/>
<g id="y"/>
<g id="a`"/>
<g id="aa"/>
<g id="ab"/>
<g id="ac"/>
<g id="ad">
<path d="M25.63,30.36s-4.57-4.78-13.58-5.68l-3.01-1.93-4.05,7.48v17.13L25.63,30.36Z" fill="#a6e5f0" fill-rule="evenodd"/>
<path d="M59,56.17c0-1.88-.01-13.65-.42-14.67-.39-.98-1-2.27-1.9-3.65l-7.37-6.81c-3-1.61-6.87-2.72-11.83-2.72-14.82,0-28.35,10.34-31.29,14.2-.99,1.29-1.19,3.45-1.19,4.83v8.81H59Z" fill="#d1f1f4" fill-rule="evenodd"/>
<path d="M49.35,21.94c-1.34,0-2.43,1.08-2.43,2.43s1.08,2.42,2.43,2.42h2.97c1.18,0,2.13,.95,2.13,2.13s-.95,2.13-2.13,2.13h-13.68c-1.88,0-3.4,1.52-3.4,3.4s1.52,3.4,3.4,3.4h18.11c1.24,0,2.24-1.01,2.24-2.24v-11.42c0-1.24-1-2.24-2.24-2.24h-7.41Z" fill="#62d9fa" fill-rule="evenodd"/>
<path d="M35.92,16.63h5.84c1.34,0,2.42,1.08,2.42,2.42s-1.08,2.42-2.42,2.42h-5.84c-1.34,0-2.42-1.08-2.42-2.42s1.08-2.42,2.42-2.42Z" fill="#62d9fa" fill-rule="evenodd"/>
<path d="M12.81,32.04c1.09,0,1.96-.88,1.96-1.96s-.88-1.96-1.96-1.96h-2.41c-.95,0-1.72-.77-1.72-1.72s.77-1.72,1.72-1.72h11.06c1.52,0,2.75-1.23,2.75-2.75s-1.23-2.75-2.75-2.75H6.82c-1,0-1.82,.81-1.82,1.82v9.24c0,1,.81,1.82,1.82,1.82h5.99Z" fill="#62d9fa" fill-rule="evenodd"/>
<path d="M55.06,11.29c0,1.3-1.06,2.36-2.36,2.36s-2.36-1.06-2.36-2.36,1.06-2.36,2.36-2.36,2.36,1.06,2.36,2.36Z" fill="#fdda5c" fill-rule="evenodd"/>
<path d="M28.1,52.56l3.9-4.65c-1.72-.54-3.52-1.16-5.42-1.9-4.46-1.72-7.99-2.4-10.8-2.37-4.85,.04-7.53,2.19-9,4.65l21.33,4.28Z" fill="#3aedbc" fill-rule="evenodd"/>
<path d="M11.22,47.55c-1.64-.03-3.05,.21-4.25,.63,0,0-.16,.08-.21,.1-1.57,2.63-1.77,5.61-1.77,6.8l17.41-.85c.37-2.03,.46-3.48,.46-3.48-.42-.17-.84-.35-1.27-.54-4.23-1.83-7.64-2.61-10.38-2.66Z" fill="#6df4c0" fill-rule="evenodd"/>
<path d="M57.5,48.78c-1.4-2.66-4.09-5.09-9.27-5.14-2.81-.03-6.35,.65-10.8,2.37-23.54,9.1-32.42,2.2-32.42,9.08v1.39c0,1.4,1.25,2.53,2.81,2.53h3.48l21.99-1.4,24.22-8.83Z" fill="#9af6d3" fill-rule="evenodd"/>
<path d="M59,55.08c0-1.11-.17-3.8-1.48-6.3-.05-.03-.26-.18-.26-.18-1.17-.46-2.55-.73-4.18-.74-2.71,0-6.12,.74-10.38,2.59-19.93,8.63-31.42,8.54-31.42,8.54h26.96l20.75-3.46v-.45Z" fill="#6df4c0" fill-rule="evenodd"/>
<path d="M54.05,54.3c-2.61-.03-5.9,.67-10.05,2.46-2.04,.88-3.96,1.62-5.76,2.24h17.95c1.55,0,2.8-1.13,2.8-2.53v-.93h0c-1.29-.75-2.91-1.22-4.94-1.25Z" fill="#9af6d3" fill-rule="evenodd"/>
<path d="M52.7,4c-.55,0-1,.45-1,1v1.37c0,.55,.45,1,1,1s1-.45,1-1v-1.37c0-.55-.45-1-1-1Z" fill="#fdda5c" fill-rule="evenodd"/>
<path d="M52.7,15.22c-.55,0-1,.45-1,1v1.37c0,.55,.45,1,1,1s1-.45,1-1v-1.37c0-.55-.45-1-1-1Z" fill="#fdda5c" fill-rule="evenodd"/>
<path d="M57.63,10.3c-.55,0-1,.45-1,1s.45,1,1,1h1.37c.55,0,1-.45,1-1s-.45-1-1-1h-1.37Z" fill="#fdda5c" fill-rule="evenodd"/>
<path d="M46.41,10.3c-.55,0-1,.45-1,1s.45,1,1,1h1.37c.55,0,1-.45,1-1s-.45-1-1-1h-1.37Z" fill="#fdda5c" fill-rule="evenodd"/>
<path d="M57.15,5.84c-.27,0-.52,.11-.71,.29l-.97,.97c-.39,.39-.39,1.03,0,1.41,.39,.39,1.03,.39,1.41,0l.97-.97c.39-.39,.39-1.03,0-1.41-.19-.19-.44-.29-.71-.29Z" fill="#fdda5c" fill-rule="evenodd"/>
<path d="M49.22,13.78c-.27,0-.52,.11-.71,.29l-.97,.97c-.39,.39-.39,1.03,0,1.41,.39,.39,1.03,.39,1.41,0l.97-.97c.39-.39,.39-1.03,0-1.41-.19-.19-.44-.29-.71-.29Z" fill="#fdda5c" fill-rule="evenodd"/>
<path d="M56.19,13.78c-.27,0-.52,.11-.71,.29-.39,.39-.39,1.03,0,1.41l.97,.97c.39,.39,1.03,.39,1.41,0,.39-.39,.39-1.03,0-1.41l-.97-.97c-.19-.19-.44-.29-.71-.29Z" fill="#fdda5c" fill-rule="evenodd"/>
<path d="M48.25,5.84c-.27,0-.52,.11-.71,.29-.39,.39-.39,1.03,0,1.41l.97,.97c.39,.39,1.03,.39,1.41,0,.39-.39,.39-1.03,0-1.41l-.97-.97c-.19-.19-.44-.29-.71-.29Z" fill="#fdda5c" fill-rule="evenodd"/>
</g>
<g id="ae"/>
<g id="af"/>
<g id="ag"/>
<g id="ah"/>
<g id="ai"/>
<g id="aj"/>
<g id="ak"/>
<g id="al"/>
<g id="am"/>
<g id="an"/>
<g id="ao"/>
<g id="ap"/>
<g id="aq"/>
<g id="ar"/>
<g id="as"/>
<g id="at"/>
<g id="au"/>
<g id="av"/>
<g id="aw"/>
<g id="ax"/>
</svg>