<?xml version="1.0" encoding="iso-8859-1"?>
<!-- Uploaded to: SVG Repo, www.svgrepo.com, Generator: SVG Repo Mixer Tools -->
<svg height="800px" width="800px" version="1.1" id="Layer_1" xmlns="http://www.w3.org/2000/svg" xmlns:xlink="http://www.w3.org/1999/xlink" 
	 viewBox="0 0 512 512" xml:space="preserve">
<path style="fill:#4BAA62;" d="M286.998,338.88c12.353,10.364,28.283,16.606,45.67,16.606c39.266,0,71.097-31.831,71.097-71.097
	c0-5.439-0.631-10.729-1.788-15.819c20.33-12.512,33.888-34.962,33.888-60.584c0-25.608-13.544-48.045-33.852-60.562
	c0.62-3.776,0.956-7.646,0.956-11.596c0-39.266-31.831-71.097-71.097-71.097c-2.279,0-4.531,0.118-6.755,0.328
	C317.62,33.829,289.529,10.612,256,10.612c-33.591,0-61.721,23.302-69.156,54.618c-2.727-0.317-5.496-0.499-8.308-0.499
	c-39.266,0-71.097,31.831-71.097,71.097c0,4.272,0.398,8.448,1.121,12.512c-19.51,12.677-32.425,34.647-32.425,59.646
	c0,25.623,13.559,48.072,33.888,60.584c-1.157,5.089-1.788,10.379-1.788,15.819c0,39.266,31.831,71.097,71.097,71.097
	c16.699,0,32.054-5.758,44.187-15.395L286.998,338.88z"/>
<polygon style="fill:#A18E84;" points="226.818,315.163 226.818,464.785 285.182,464.785 285.182,288.634 "/>
<g>
	<circle style="fill:#CC473C;" cx="195.687" cy="137.069" r="23.876"/>
	<circle style="fill:#CC473C;" cx="260.418" cy="204.983" r="23.876"/>
	<circle style="fill:#CC473C;" cx="368.305" cy="219.839" r="23.876"/>
	<circle style="fill:#CC473C;" cx="175.175" cy="280.325" r="23.876"/>
</g>
<path style="fill:#939393;" d="M473.536,460.005c-119.38,0-119.38-32.896-217.536-32.896s-98.157,32.896-217.536,32.896v41.385
	h435.073V460.005z"/>
<g>
	<path style="fill:#231F20;" d="M195.692,171.553c19.016,0,34.487-15.471,34.487-34.487s-15.472-34.487-34.487-34.487
		s-34.487,15.471-34.487,34.487S176.675,171.553,195.692,171.553z M195.692,123.802c7.315,0,13.264,5.95,13.264,13.264
		s-5.95,13.264-13.264,13.264s-13.264-5.95-13.264-13.264S188.377,123.802,195.692,123.802z"/>
	<path style="fill:#231F20;" d="M473.536,449.392c-61.032,0-89.797-8.741-117.614-17.195c-18.121-5.506-35.563-10.803-60.129-13.616
		v-61.295c11.358,5.74,23.993,8.812,36.875,8.812c45.054,0,81.709-36.654,81.709-81.709c0-3.633-0.247-7.284-0.739-10.914
		c20.69-15.392,32.838-39.372,32.838-65.489c0-26.245-12.273-50.339-33.155-65.721c0.172-2.154,0.259-4.305,0.259-6.437
		c0-44.702-36.087-81.136-80.657-81.702C321.434,21.859,290.95,0,256,0c-34.977,0-65.436,21.847-76.922,54.121
		c-0.18-0.001-0.362-0.002-0.542-0.002c-45.054,0-81.709,36.654-81.709,81.709c0,2.508,0.121,5.042,0.361,7.583
		c-19.945,15.439-31.665,39.107-31.665,64.575c0,26.117,12.148,50.097,32.838,65.489c-0.491,3.63-0.739,7.281-0.739,10.914
		c0,45.054,36.654,81.709,81.709,81.709c12.839,0,25.506-3.075,36.875-8.813v61.296c-24.565,2.813-42.007,8.109-60.129,13.616
		c-27.818,8.454-56.583,17.195-117.614,17.195c-5.861,0-10.612,4.752-10.612,10.612v41.385c0,5.86,4.751,10.612,10.612,10.612
		h435.073c5.861,0,10.612-4.752,10.612-10.612v-41.385C484.148,454.144,479.397,449.392,473.536,449.392z M179.332,344.875
		c-33.352,0-60.486-27.134-60.486-60.486c0-4.488,0.513-9.017,1.524-13.465c1.007-4.429-0.917-9.008-4.785-11.388
		c-18.058-11.116-28.839-30.387-28.839-51.55c0-20.55,10.315-39.522,27.594-50.748c3.575-2.322,5.413-6.559,4.666-10.756
		c-0.635-3.571-0.956-7.156-0.956-10.655c0-33.352,27.134-60.486,60.486-60.486c2.294,0,4.61,0.14,7.078,0.428
		c5.348,0.626,10.311-2.852,11.554-8.089c6.495-27.353,30.687-46.457,58.832-46.457c28.074,0,52.252,19.043,58.798,46.313
		c1.233,5.135,6.059,8.579,11.312,8.087c1.981-0.187,3.919-0.281,5.762-0.281c33.352,0,60.486,27.134,60.486,60.486
		c0,3.255-0.275,6.578-0.817,9.878c-0.697,4.248,1.241,8.495,4.905,10.753c18.039,11.118,28.808,30.38,28.808,51.529
		c0,21.163-10.781,40.434-28.839,51.549c-3.869,2.38-5.792,6.96-4.785,11.388c1.011,4.448,1.524,8.978,1.524,13.465
		c0,33.352-27.134,60.486-60.486,60.486c-13.35,0-26.345-4.438-36.875-12.541v-38.157l60.416-42.048
		c3.766,1.416,7.841,2.194,12.096,2.194c19.016,0,34.487-15.471,34.487-34.487s-15.472-34.487-34.487-34.487
		c-19.016,0-34.487,15.471-34.487,34.487c0,6.733,1.947,13.017,5.297,18.332l-20.629,14.357l-30.85-73.923l17.133-25.224
		c6.499,3.646,14.818,6.271,25.477,6.84c0.193,0.011,0.384,0.016,0.575,0.016c5.601,0,10.285-4.387,10.587-10.047
		c0.312-5.852-4.179-10.849-10.031-11.161c-12.404-0.662-20.716-5.045-25.413-13.397c-3.678-6.544-3.801-13.303-3.804-13.599
		c0.045-5.824-4.62-10.602-10.452-10.689c-5.878-0.125-10.682,4.593-10.769,10.452c-0.018,1.187-0.001,11.929,5.939,23.16
		c0.647,1.225,1.384,2.479,2.207,3.744l-22.035,32.442c-2.147-0.42-4.361-0.646-6.628-0.646c-19.016,0-34.487,15.471-34.487,34.487
		s15.472,34.487,34.487,34.487c9.878,0,18.793-4.181,25.087-10.859l15.158,36.32l-20.754,14.444l-49.262,22.391l-59.823-89.891
		c0.544-1.289,1.016-2.553,1.415-3.776c3.998-12.241,2.077-22.785,1.843-23.946l-10.406,2.081l-10.425,1.984
		c0.013,0.067,1.165,6.727-1.426,13.987c-3.28,9.191-11.28,15.542-23.779,18.875c-5.662,1.51-9.029,7.324-7.518,12.986
		c1.265,4.748,5.556,7.881,10.246,7.881c0.905,0,1.825-0.117,2.741-0.362c10.302-2.747,18.023-6.92,23.812-11.683l11.053,16.608
		c-15.774,3.164-27.695,17.121-27.695,33.813c0,19.017,15.472,34.487,34.487,34.487c11.867,0,22.353-6.025,28.56-15.178
		l12.471,18.739v13.953C205.564,340.531,192.838,344.875,179.332,344.875z M362.827,231.902c-0.947-0.889-2.034-1.574-3.196-2.054
		c-2.806-2.434-4.591-6.015-4.591-10.012c0-7.315,5.95-13.264,13.264-13.264c7.315,0,13.264,5.95,13.264,13.264
		c0,7.315-5.95,13.264-13.264,13.264C366.351,233.1,364.5,232.664,362.827,231.902z M273.686,204.98
		c0,7.315-5.95,13.264-13.264,13.264c-7.315,0-13.264-5.95-13.264-13.264s5.95-13.264,13.264-13.264
		C267.736,191.715,273.686,197.665,273.686,204.98z M188.441,280.322c0,7.315-5.95,13.264-13.264,13.264
		c-7.315,0-13.264-5.95-13.264-13.264c0-7.315,5.95-13.264,13.264-13.264c3.847,0,7.306,1.656,9.731,4.281l2.341,3.518
		C188.007,276.525,188.441,278.372,188.441,280.322z M237.43,321.995l37.14-16.882v111.798c-5.802-0.267-11.962-0.415-18.57-0.415
		c-6.608,0-12.768,0.147-18.57,0.415L237.43,321.995L237.43,321.995z M462.925,490.777H49.075v-20.249
		c57.014-0.957,85.535-9.626,113.174-18.025c25.019-7.602,48.65-14.784,93.751-14.784s68.732,7.182,93.751,14.784
		c27.638,8.399,56.16,17.068,113.174,18.025V490.777z"/>
</g>
</svg>